<?xml version="1.0" encoding="utf-8"?>
<!-- Generator: Adobe Illustrator 15.0.0, SVG Export Plug-In . SVG Version: 6.00 Build 0)  -->
<!DOCTYPE svg PUBLIC "-//W3C//DTD SVG 1.1//EN" "http://www.w3.org/Graphics/SVG/1.1/DTD/svg11.dtd">
<svg version="1.1" id="Layer_1" xmlns="http://www.w3.org/2000/svg" xmlns:xlink="http://www.w3.org/1999/xlink" x="0px" y="0px"
	 width="166px" height="54.333px" viewBox="0 11.833 166 54.333" enable-background="new 0 11.833 166 54.333" xml:space="preserve"
	>
<polygon fill="#FFC425" points="15.742,14.392 1.312,18.596 15.742,24.47 27.87,19.534 27.87,26.745 30.171,26.745 30.171,18.596 
	"/>
<path fill="#0194D3" d="M20.657,33.108c0,3.185-2.519,5.089-4.915,5.089c-2.394,0-4.916-1.905-4.916-5.089v-8.174l-4.987-2.027
	v10.202c0,5.429,3.787,9.991,9.903,9.991c6.112,0,9.9-4.563,9.9-9.991V22.907l-4.985,2.027V33.108z"/>
<path fill="#0194D3" d="M49.075,33.065c0,4.075-2.808,6.796-5.805,6.796c-4.026,0-6.264-2.721-6.264-6.796
	c0-4.066,2.238-6.777,6.264-6.777C46.267,26.288,49.075,29.222,49.075,33.065z M52.207,33.065c0-5.743-3.849-9.721-8.717-9.721
	c-2.453,0-4.699,0.898-6.391,2.944h-0.092v-2.261h-3.127v24.597h3.127v-8.763h0.092c1.692,2.02,3.938,2.934,6.391,2.934
	C48.358,42.795,52.207,38.806,52.207,33.065z"/>
<path fill="#0194D3" d="M81.406,33.065c0,3.935-2.586,6.796-6.041,6.796c-3.44,0-6.02-2.861-6.02-6.796
	c0-3.843,2.58-6.777,6.02-6.777C78.82,26.288,81.406,29.222,81.406,33.065z M84.534,33.065c0-6.102-4.25-9.721-9.169-9.721
	c-5.131,0-9.154,3.619-9.154,9.721c0,6.102,4.244,9.73,9.154,9.73C80.284,42.795,84.534,39.167,84.534,33.065z"/>
<path fill="#0194D3" d="M109.99,42.115V30.577c0-2.492-1.38-4.059-3.348-4.059c-2.108,0-4.267,2.038-4.267,4.517v11.08h-3.121
	V30.577c0-2.492-1.283-4.059-3.354-4.059c-2.224,0-4.242,2.253-4.242,4.746v10.851h-3.13V24.027h3.13v2.261h0.094
	c1.255-2.045,3.406-2.944,4.835-2.944c2.452,0,4.022,0.898,4.916,3.174c1.563-1.819,3.125-3.174,5.811-3.174
	c3.809,0,5.81,2.944,5.81,6.414v12.357H109.99z"/>
<path fill="#0194D3" d="M118.437,42.115V24.027h3.11v18.088H118.437z"/>
<path fill="#0194D3" d="M132.93,42.795c-3.568,0-5.811-1.586-7.143-3.402l2.006-2.476c0.895,1.347,2.896,2.945,5.137,2.945
	c2.235,0,3.126-0.918,3.126-2.721c0-3.167-8.937-2.717-8.937-8.584c0-3.62,2.68-5.212,5.811-5.212c2.003,0,4.47,0.683,5.806,2.478
	l-1.774,2.263c-1.347-1.333-2.676-1.797-4.031-1.797c-1.787,0-2.678,0.899-2.678,2.268c0,3.164,8.936,2.257,8.936,8.584
	C139.188,40.302,137.399,42.795,132.93,42.795z"/>
<path fill="#0194D3" d="M157.333,31.035h-11.211c0.405-2.087,2.356-4.747,5.587-4.747C155.011,26.288,156.803,28.771,157.333,31.035
	z M160.637,33.873v-0.808c0-5.743-4.021-9.721-8.928-9.721c-4.892,0-8.954,3.89-8.954,9.721c0,5.741,4.063,9.73,8.954,9.73
	c3.258,0,5.729-1.093,8.128-3.989l-2.639-1.621c-1.437,1.816-3.085,2.676-5.489,2.676c-3.23,0-5.684-2.676-5.858-5.988H160.637z"/>
<path fill="#0194D3" d="M59.21,30.813V42.11h-3.126V24.027h3.126v2.251h0.087c1.021-1.797,2.486-2.934,5.183-2.934v3.387
	C61.784,26.278,59.21,28.266,59.21,30.813z"/>
<path fill="#0194D3" d="M121.991,18.689c0,1.115-0.901,1.998-2.008,1.998c-1.108,0-2.015-0.883-2.015-1.998
	c0-1.123,0.906-2.017,2.015-2.017C121.09,16.672,121.991,17.566,121.991,18.689z"/>
<path fill="#0194D3" d="M162.141,17.508c0.826,0,1.482,0.67,1.482,1.508c0,0.852-0.656,1.516-1.488,1.516
	c-0.825,0-1.498-0.664-1.498-1.516c0-0.838,0.673-1.508,1.498-1.508H162.141z M162.135,17.743c-0.663,0-1.207,0.569-1.207,1.273
	c0,0.717,0.544,1.281,1.213,1.281c0.673,0.009,1.207-0.564,1.207-1.273c0-0.711-0.534-1.281-1.207-1.281H162.135z M161.854,19.896
	h-0.27v-1.684c0.141-0.021,0.276-0.04,0.479-0.04c0.252,0,0.421,0.052,0.521,0.126c0.099,0.074,0.155,0.188,0.155,0.347
	c0,0.222-0.147,0.356-0.329,0.41v0.015c0.148,0.026,0.248,0.161,0.281,0.406c0.04,0.263,0.079,0.364,0.107,0.419h-0.281
	c-0.04-0.055-0.082-0.208-0.114-0.43c-0.041-0.216-0.149-0.294-0.361-0.294h-0.188V19.896z M161.854,18.963h0.193
	c0.222,0,0.41-0.082,0.41-0.29c0-0.148-0.107-0.296-0.41-0.296c-0.086,0-0.146,0.009-0.193,0.014V18.963z"/>
<path fill="#0194D3" d="M80.362,61.406c0,0.43-0.134,0.78-0.403,1.049c-0.299,0.306-0.721,0.458-1.268,0.458h-2.117v-7.641h1.976
	c0.553,0,0.984,0.123,1.293,0.37c0.309,0.247,0.465,0.574,0.465,0.98v1.059c0,0.231-0.048,0.425-0.142,0.577
	c-0.151,0.233-0.43,0.418-0.834,0.556c0.426,0.11,0.72,0.277,0.879,0.504c0.1,0.146,0.15,0.347,0.15,0.601V61.406z M78.736,57.946
	v-1.299c0-0.189-0.043-0.304-0.126-0.344c-0.083-0.041-0.205-0.061-0.366-0.061v2.108c0.168,0,0.274-0.011,0.32-0.034
	C78.679,58.26,78.736,58.137,78.736,57.946z M78.736,61.536v-1.939c0-0.19-0.043-0.304-0.126-0.346
	c-0.083-0.04-0.205-0.06-0.366-0.06v2.752c0.168,0,0.274-0.012,0.32-0.034C78.679,61.851,78.736,61.728,78.736,61.536z"/>
<path fill="#0194D3" d="M85.284,55.272l-1.646,4.618v3.022h-1.669v-3.034l-1.398-4.606h1.606l0.741,2.707l0.853-2.707H85.284z"/>
<path fill="#0194D3" d="M95.875,60.101c0,1.054-0.274,1.83-0.824,2.333c-0.641,0.58-1.724,0.871-3.249,0.871
	c-1.448,0-2.51-0.344-3.182-1.031c-0.502-0.502-0.754-1.128-0.754-1.876v-3.663h3.181v3.707c0,0.168,0.067,0.301,0.201,0.401
	c0.135,0.101,0.297,0.149,0.484,0.149c0.223,0,0.389-0.046,0.499-0.137c0.11-0.092,0.165-0.23,0.165-0.414v-1.91
	c0-0.441-0.099-0.795-0.299-1.055c-0.537-0.551-1.111-1.156-1.724-1.815c-1.013-1.066-1.579-1.679-1.703-1.83
	c-0.535-0.688-0.805-1.327-0.805-1.922v-1.807c0-1.023,0.29-1.777,0.87-2.266c0.671-0.566,1.74-0.847,3.202-0.847
	c1.267,0,2.211,0.28,2.838,0.847c0.533,0.488,0.801,1.152,0.801,1.99v2.768h-3.181v-2.971c0-0.153-0.051-0.271-0.154-0.356
	s-0.235-0.127-0.394-0.127c-0.191,0-0.335,0.038-0.43,0.115c-0.097,0.076-0.144,0.2-0.144,0.368v1.497c0,0.522,0.23,1.029,0.69,1.52
	c0.644,0.655,1.248,1.274,1.815,1.854c0.735,0.761,1.212,1.297,1.426,1.602c0.446,0.625,0.668,1.282,0.668,1.967V60.101z"/>
<path fill="#0194D3" d="M104.646,63.12h-2.814v-0.502c-0.152,0.289-0.385,0.476-0.698,0.561c-0.313,0.083-0.758,0.126-1.338,0.126
	c-0.946,0-1.617-0.167-2.013-0.505c-0.397-0.335-0.595-0.845-0.595-1.533v-2.608c0-1.036,0.712-1.898,2.139-2.586
	c1.427-0.685,2.14-1.166,2.14-1.439v-1.924c0-0.213-0.044-0.373-0.136-0.479c-0.089-0.107-0.224-0.161-0.402-0.161
	c-0.149,0-0.276,0.054-0.381,0.161c-0.104,0.106-0.156,0.267-0.156,0.479v2.563h-3.089v-2.586c0-0.959,0.389-1.662,1.167-2.104
	c0.625-0.352,1.502-0.525,2.631-0.525s1.976,0.19,2.54,0.571c0.67,0.442,1.006,1.167,1.006,2.173V63.12z M101.466,60.695v-3.342
	c-0.428,0.108-0.718,0.237-0.87,0.391c-0.152,0.151-0.228,0.351-0.228,0.595v2.356c0,0.199,0.049,0.348,0.148,0.447
	c0.097,0.1,0.24,0.148,0.424,0.148c0.15,0,0.277-0.049,0.377-0.148C101.416,61.043,101.466,60.895,101.466,60.695"/>
<rect x="106.251" y="47.144" fill="#0194D3" width="3.18" height="16.015"/>
<rect x="111.003" y="47.104" fill="#0194D3" width="3.18" height="16.016"/>
<path fill="#0194D3" d="M118.938,49.438h-3.182v-2.311h3.182V49.438z M118.938,63.12h-3.182V50.148h3.182V63.12z"/>
<path fill="#0194D3" d="M127.997,60.673c0,0.961-0.38,1.661-1.144,2.106c-0.611,0.349-1.479,0.525-2.608,0.525
	c-1.13,0-1.999-0.192-2.609-0.573c-0.731-0.458-1.097-1.18-1.097-2.173v-7.758c0-0.976,0.356-1.692,1.074-2.151
	c0.625-0.395,1.502-0.593,2.632-0.593c1.113,0,1.981,0.175,2.608,0.525c0.764,0.427,1.144,1.128,1.144,2.104v4.941h-4.278v3.003
	c0,0.212,0.046,0.374,0.137,0.489c0.093,0.113,0.23,0.171,0.412,0.171c0.184,0,0.32-0.057,0.412-0.171s0.138-0.277,0.138-0.489
	V58.04h3.18V60.673z M124.817,55.661v-2.955c0-0.213-0.046-0.372-0.138-0.479c-0.092-0.104-0.229-0.158-0.412-0.158
	c-0.153,0-0.283,0.054-0.389,0.158c-0.106,0.107-0.16,0.267-0.16,0.479v2.955H124.817z"/>
<polygon fill="#0194D3" points="141.846,63.096 138.688,63.096 138.688,54.104 136.865,63.096 134.448,63.096 132.352,54.104 
	132.352,63.096 129.583,63.096 129.583,47.079 134.134,47.079 135.726,55.384 137.154,47.079 141.846,47.079 "/>
<path fill="#0194D3" d="M150.748,63.12h-2.813v-0.502c-0.153,0.289-0.385,0.476-0.698,0.561c-0.313,0.083-0.76,0.126-1.337,0.126
	c-0.946,0-1.617-0.167-2.015-0.505c-0.397-0.335-0.596-0.845-0.596-1.533v-2.608c0-1.036,0.714-1.898,2.141-2.586
	c1.426-0.685,2.139-1.166,2.139-1.439v-1.924c0-0.213-0.046-0.373-0.134-0.479c-0.091-0.107-0.225-0.161-0.403-0.161
	c-0.149,0-0.276,0.054-0.381,0.161c-0.105,0.106-0.157,0.267-0.157,0.479v2.563h-3.09v-2.586c0-0.959,0.39-1.662,1.168-2.104
	c0.625-0.352,1.502-0.525,2.631-0.525c1.13,0,1.975,0.19,2.539,0.571c0.672,0.442,1.007,1.167,1.007,2.173V63.12z M147.568,60.695
	v-3.342c-0.427,0.108-0.718,0.237-0.869,0.391c-0.152,0.151-0.229,0.351-0.229,0.595v2.356c0,0.199,0.049,0.348,0.148,0.447
	c0.101,0.1,0.241,0.148,0.424,0.148c0.152,0,0.277-0.049,0.377-0.148S147.568,60.895,147.568,60.695"/>
<path fill="#0194D3" d="M159.78,60.673c0,0.961-0.381,1.661-1.143,2.106c-0.611,0.349-1.48,0.525-2.608,0.525s-2-0.192-2.608-0.573
	c-0.731-0.458-1.098-1.18-1.098-2.173v-7.758c0-0.976,0.357-1.692,1.074-2.151c0.625-0.395,1.504-0.593,2.632-0.593
	c1.112,0,1.982,0.175,2.608,0.525c0.762,0.427,1.143,1.128,1.143,2.104v4.941h-4.278v3.003c0,0.212,0.046,0.374,0.138,0.489
	c0.092,0.113,0.229,0.171,0.412,0.171s0.32-0.057,0.411-0.171c0.093-0.114,0.139-0.277,0.139-0.489V58.04h3.179V60.673z
	 M156.602,55.661v-2.955c0-0.213-0.046-0.372-0.139-0.479c-0.091-0.104-0.228-0.158-0.411-0.158c-0.152,0-0.283,0.054-0.39,0.158
	c-0.106,0.107-0.16,0.267-0.16,0.479v2.955H156.602z"/>
</svg>
