<?xml version="1.0" encoding="utf-8"?>
<!-- Generator: Adobe Illustrator 15.0.0, SVG Export Plug-In . SVG Version: 6.00 Build 0)  -->
<!DOCTYPE svg PUBLIC "-//W3C//DTD SVG 1.1//EN" "http://www.w3.org/Graphics/SVG/1.1/DTD/svg11.dtd">
<svg version="1.1" id="Layer_1" xmlns="http://www.w3.org/2000/svg" xmlns:xlink="http://www.w3.org/1999/xlink" x="0px" y="0px"
	 width="145px" height="46.75px" viewBox="0 19.25 145 46.75" enable-background="new 0 19.25 145 46.75" xml:space="preserve">
<polygon fill="#FFC425" points="14.641,21.201 2.062,24.866 14.641,29.985 25.213,25.683 25.213,31.968 27.22,31.968 27.22,24.866 
	"/>
<path fill="#0194D3" d="M18.925,37.513c0,2.776-2.196,4.437-4.284,4.437c-2.087,0-4.286-1.66-4.286-4.437V30.39l-4.347-1.767v8.889
	c0,4.732,3.301,8.709,8.633,8.709c5.328,0,8.63-3.977,8.63-8.709v-8.889l-4.346,1.767V37.513z"/>
<path fill="#0194D3" d="M43.698,37.475c0,3.553-2.448,5.925-5.06,5.925c-3.51,0-5.46-2.372-5.46-5.925
	c0-3.544,1.951-5.904,5.46-5.904C41.25,31.571,43.698,34.125,43.698,37.475z M46.428,37.475c0-5.004-3.355-8.47-7.599-8.47
	c-2.138,0-4.096,0.783-5.571,2.566h-0.081V29.6h-2.727v21.439h2.727v-7.64h0.081c1.476,1.761,3.433,2.558,5.571,2.558
	C43.073,45.957,46.428,42.479,46.428,37.475z"/>
<path fill="#0194D3" d="M71.883,37.475c0,3.432-2.255,5.925-5.266,5.925c-2.999,0-5.248-2.493-5.248-5.925
	c0-3.35,2.249-5.904,5.248-5.904C69.628,31.571,71.883,34.125,71.883,37.475z M74.609,37.475c0-5.317-3.706-8.47-7.993-8.47
	c-4.474,0-7.98,3.153-7.98,8.47c0,5.32,3.699,8.482,7.98,8.482C70.903,45.957,74.609,42.795,74.609,37.475z"/>
<path fill="#0194D3" d="M96.8,45.364V35.307c0-2.171-1.202-3.536-2.918-3.536c-1.838,0-3.72,1.774-3.72,3.934v9.659h-2.721V35.307
	c0-2.171-1.118-3.536-2.924-3.536c-1.938,0-3.698,1.961-3.698,4.133v9.46h-2.728V29.6h2.728v1.971h0.082
	c1.094-1.783,2.969-2.566,4.215-2.566c2.137,0,3.507,0.783,4.285,2.766c1.362-1.585,2.725-2.766,5.065-2.766
	c3.32,0,5.064,2.566,5.064,5.587v10.772H96.8z"/>
<path fill="#0194D3" d="M104.163,45.364V29.6h2.711v15.765H104.163z"/>
<path fill="#0194D3" d="M116.797,45.957c-3.11,0-5.065-1.383-6.227-2.966l1.748-2.159c0.781,1.176,2.525,2.567,4.479,2.567
	c1.948,0,2.726-0.8,2.726-2.372c0-2.761-7.791-2.368-7.791-7.482c0-3.152,2.337-4.54,5.065-4.54c1.746,0,3.896,0.595,5.061,2.16
	l-1.546,1.971c-1.175-1.16-2.333-1.565-3.515-1.565c-1.558,0-2.334,0.783-2.334,1.974c0,2.758,7.789,1.967,7.789,7.482
	C122.252,43.783,120.693,45.957,116.797,45.957z"/>
<path fill="#0194D3" d="M138.07,35.705h-9.773c0.354-1.819,2.055-4.134,4.871-4.134C136.046,31.571,137.608,33.732,138.07,35.705z
	 M140.95,38.18v-0.705c0-5.004-3.506-8.47-7.782-8.47c-4.265,0-7.807,3.389-7.807,8.47c0,5.005,3.542,8.482,7.807,8.482
	c2.84,0,4.993-0.952,7.085-3.478l-2.3-1.413c-1.253,1.583-2.689,2.333-4.785,2.333c-2.816,0-4.955-2.333-5.107-5.22H140.95z"/>
<path fill="#0194D3" d="M52.533,35.512v9.849h-2.726V29.6h2.726v1.962h0.077c0.89-1.567,2.167-2.557,4.518-2.557v2.952
	C54.777,31.562,52.533,33.292,52.533,35.512z"/>
<path fill="#0194D3" d="M107.262,24.947c0,0.972-0.785,1.742-1.75,1.742c-0.967,0-1.757-0.771-1.757-1.742
	c0-0.979,0.79-1.758,1.757-1.758C106.477,23.188,107.262,23.968,107.262,24.947z"/>
<path fill="#0194D3" d="M142.261,23.917c0.721,0,1.293,0.584,1.293,1.314c0,0.742-0.572,1.321-1.298,1.321
	c-0.719,0-1.306-0.579-1.306-1.321c0-0.73,0.587-1.314,1.306-1.314H142.261z M142.256,24.122c-0.578,0-1.052,0.496-1.052,1.11
	c0,0.625,0.474,1.116,1.057,1.116c0.587,0.008,1.053-0.491,1.053-1.109c0-0.621-0.466-1.117-1.053-1.117H142.256z M142.012,25.999
	h-0.236V24.53c0.123-0.018,0.242-0.034,0.418-0.034c0.22,0,0.367,0.045,0.454,0.11c0.087,0.065,0.136,0.164,0.136,0.302
	c0,0.194-0.129,0.311-0.287,0.357v0.013c0.13,0.023,0.216,0.141,0.246,0.354c0.034,0.229,0.068,0.317,0.093,0.365h-0.245
	c-0.034-0.048-0.072-0.182-0.1-0.375c-0.036-0.188-0.13-0.257-0.314-0.257h-0.164V25.999z M142.012,25.186h0.168
	c0.193,0,0.356-0.071,0.356-0.252c0-0.129-0.093-0.258-0.356-0.258c-0.075,0-0.127,0.008-0.168,0.012V25.186z"/>
<path fill="#0194D3" d="M70.973,62.181c0,0.375-0.117,0.681-0.352,0.915c-0.26,0.266-0.628,0.398-1.105,0.398H67.67v-6.66h1.723
	c0.481,0,0.857,0.107,1.127,0.323c0.269,0.215,0.405,0.5,0.405,0.854v0.923c0,0.202-0.042,0.37-0.124,0.504
	c-0.132,0.203-0.375,0.364-0.727,0.484c0.371,0.096,0.627,0.241,0.767,0.438c0.087,0.128,0.131,0.303,0.131,0.524V62.181z
	 M69.555,59.165v-1.132c0-0.165-0.038-0.266-0.11-0.3c-0.072-0.036-0.179-0.053-0.319-0.053v1.838c0.146,0,0.24-0.01,0.279-0.03
	C69.505,59.438,69.555,59.331,69.555,59.165z M69.555,62.295v-1.691c0-0.166-0.038-0.265-0.11-0.301
	c-0.072-0.035-0.179-0.052-0.319-0.052v2.398c0.146,0,0.24-0.01,0.279-0.03C69.505,62.568,69.555,62.462,69.555,62.295z"/>
<path fill="#0194D3" d="M75.263,56.834l-1.435,4.026v2.634h-1.456V60.85l-1.219-4.016h1.399l0.647,2.36l0.743-2.36H75.263z"/>
<path fill="#0194D3" d="M84.495,61.043c0,0.919-0.239,1.595-0.718,2.034c-0.559,0.506-1.503,0.759-2.833,0.759
	c-1.263,0-2.188-0.3-2.773-0.899c-0.438-0.437-0.656-0.982-0.656-1.635v-3.193h2.772v3.231c0,0.146,0.059,0.263,0.175,0.35
	c0.117,0.088,0.259,0.131,0.423,0.131c0.193,0,0.339-0.04,0.435-0.12c0.097-0.079,0.144-0.2,0.144-0.36v-1.665
	c0-0.385-0.085-0.692-0.26-0.92c-0.469-0.479-0.97-1.008-1.504-1.582c-0.882-0.93-1.376-1.463-1.484-1.596
	c-0.466-0.599-0.7-1.156-0.7-1.675v-1.574c0-0.893,0.252-1.551,0.758-1.976c0.585-0.494,1.517-0.738,2.792-0.738
	c1.104,0,1.927,0.244,2.473,0.738c0.466,0.425,0.698,1.004,0.698,1.734v2.412h-2.772V51.91c0-0.133-0.044-0.236-0.135-0.311
	c-0.09-0.075-0.205-0.111-0.343-0.111c-0.167,0-0.292,0.033-0.375,0.102c-0.084,0.065-0.124,0.174-0.124,0.32v1.305
	c0,0.456,0.2,0.897,0.602,1.325c0.561,0.571,1.088,1.111,1.583,1.616c0.641,0.663,1.056,1.13,1.242,1.396
	c0.389,0.545,0.582,1.117,0.582,1.714V61.043z"/>
<path fill="#0194D3" d="M92.141,63.675h-2.453v-0.438c-0.133,0.252-0.335,0.415-0.609,0.488c-0.271,0.073-0.66,0.11-1.166,0.11
	c-0.824,0-1.41-0.146-1.755-0.439c-0.346-0.293-0.518-0.736-0.518-1.338v-2.273c0-0.903,0.62-1.654,1.864-2.254
	c1.244-0.597,1.865-1.017,1.865-1.255V54.6c0-0.186-0.038-0.325-0.118-0.418c-0.077-0.094-0.195-0.141-0.352-0.141
	c-0.129,0-0.24,0.047-0.331,0.141c-0.092,0.093-0.137,0.232-0.137,0.418v2.234h-2.692V54.58c0-0.837,0.339-1.449,1.018-1.835
	c0.545-0.307,1.31-0.458,2.293-0.458s1.723,0.166,2.214,0.498c0.584,0.386,0.877,1.018,0.877,1.894V63.675z M89.369,61.562v-2.913
	c-0.373,0.094-0.625,0.207-0.759,0.341c-0.133,0.131-0.198,0.305-0.198,0.519v2.054c0,0.174,0.043,0.303,0.129,0.39
	c0.085,0.087,0.211,0.129,0.37,0.129c0.131,0,0.242-0.042,0.328-0.129C89.326,61.864,89.369,61.735,89.369,61.562"/>
<rect x="93.541" y="49.748" fill="#0194D3" width="2.771" height="13.96"/>
<rect x="97.683" y="49.714" fill="#0194D3" width="2.772" height="13.961"/>
<path fill="#0194D3" d="M104.601,51.748h-2.773v-2.015h2.773V51.748z M104.601,63.675h-2.773V52.367h2.773V63.675z"/>
<path fill="#0194D3" d="M112.497,61.542c0,0.837-0.331,1.447-0.997,1.836c-0.532,0.304-1.289,0.458-2.273,0.458
	c-0.985,0-1.743-0.168-2.275-0.5c-0.637-0.399-0.955-1.027-0.955-1.894v-6.764c0-0.85,0.311-1.475,0.936-1.875
	c0.545-0.344,1.31-0.517,2.295-0.517c0.971,0,1.728,0.152,2.273,0.458c0.666,0.372,0.997,0.983,0.997,1.835v4.307h-3.729v2.618
	c0,0.185,0.04,0.326,0.119,0.427c0.081,0.099,0.201,0.148,0.359,0.148c0.16,0,0.279-0.049,0.359-0.148s0.119-0.242,0.119-0.427
	v-2.259h2.772V61.542z M109.725,57.173v-2.576c0-0.186-0.039-0.324-0.119-0.417c-0.08-0.092-0.199-0.139-0.359-0.139
	c-0.134,0-0.247,0.047-0.339,0.139c-0.093,0.093-0.14,0.231-0.14,0.417v2.576H109.725z"/>
<polygon fill="#0194D3" points="124.569,63.653 121.816,63.653 121.816,55.814 120.228,63.653 118.121,63.653 116.293,55.814 
	116.293,63.653 113.88,63.653 113.88,49.691 117.847,49.691 119.234,56.932 120.48,49.691 124.569,49.691 "/>
<path fill="#0194D3" d="M132.33,63.675h-2.452v-0.438c-0.135,0.252-0.336,0.415-0.609,0.488c-0.272,0.073-0.662,0.11-1.165,0.11
	c-0.825,0-1.41-0.146-1.756-0.439c-0.347-0.293-0.52-0.736-0.52-1.338v-2.273c0-0.903,0.622-1.654,1.865-2.254
	c1.243-0.597,1.864-1.017,1.864-1.255V54.6c0-0.186-0.039-0.325-0.116-0.418c-0.079-0.094-0.196-0.141-0.352-0.141
	c-0.13,0-0.241,0.047-0.332,0.141c-0.092,0.093-0.137,0.232-0.137,0.418v2.234h-2.694V54.58c0-0.837,0.34-1.449,1.019-1.835
	c0.545-0.307,1.31-0.458,2.293-0.458c0.986,0,1.723,0.166,2.214,0.498c0.585,0.386,0.878,1.018,0.878,1.894V63.675z M129.558,61.562
	v-2.913c-0.371,0.094-0.625,0.207-0.757,0.341c-0.134,0.131-0.2,0.305-0.2,0.519v2.054c0,0.174,0.042,0.303,0.13,0.39
	c0.087,0.087,0.21,0.129,0.369,0.129c0.132,0,0.241-0.042,0.328-0.129S129.558,61.735,129.558,61.562"/>
<path fill="#0194D3" d="M140.204,61.542c0,0.837-0.333,1.447-0.997,1.836c-0.532,0.304-1.29,0.458-2.273,0.458
	c-0.982,0-1.743-0.168-2.273-0.5c-0.638-0.399-0.957-1.027-0.957-1.894v-6.764c0-0.85,0.312-1.475,0.937-1.875
	c0.545-0.344,1.312-0.517,2.294-0.517c0.97,0,1.728,0.152,2.273,0.458c0.664,0.372,0.997,0.983,0.997,1.835v4.307h-3.729v2.618
	c0,0.185,0.04,0.326,0.119,0.427c0.081,0.099,0.199,0.148,0.359,0.148s0.279-0.049,0.358-0.148c0.081-0.1,0.121-0.242,0.121-0.427
	v-2.259h2.771V61.542z M137.433,57.173v-2.576c0-0.186-0.04-0.324-0.121-0.417c-0.079-0.092-0.198-0.139-0.358-0.139
	c-0.133,0-0.246,0.047-0.34,0.139c-0.092,0.093-0.139,0.231-0.139,0.417v2.576H137.433z"/>
</svg>
