<?xml version="1.0" standalone="no"?>
<!DOCTYPE svg PUBLIC "-//W3C//DTD SVG 20010904//EN"
 "http://www.w3.org/TR/2001/REC-SVG-20010904/DTD/svg10.dtd">
<svg version="1.0" xmlns="http://www.w3.org/2000/svg"
 width="200.000000pt" height="200.000000pt" viewBox="0 0 200.000000 200.000000"
 preserveAspectRatio="xMidYMid meet">
<metadata>
Created by potrace 1.11, written by Peter Selinger 2001-2013
</metadata>
<g transform="translate(0.000000,200.000000) scale(0.100000,-0.100000)"
fill="#000000" stroke="none">
<path d="M909 1956 c-2 -2 -22 -6 -44 -9 -74 -11 -178 -55 -231 -100 -19 -16
-47 -27 -84 -31 -116 -13 -263 -114 -348 -238 -55 -80 -93 -168 -81 -190 5
-10 15 -18 22 -18 7 0 5 -5 -4 -10 -29 -17 -107 -143 -123 -198 -9 -32 -14
-81 -12 -130 5 -118 60 -242 100 -226 13 5 13 0 5 -32 -25 -89 26 -208 135
-319 104 -104 224 -166 239 -122 2 6 11 -2 20 -20 28 -52 93 -92 179 -108 57
-11 73 -15 107 -26 77 -25 116 -51 168 -113 13 -14 30 -26 38 -26 12 0 39 37
48 67 1 5 11 8 22 8 11 0 46 15 78 33 78 45 158 76 296 112 224 60 361 151
427 285 25 51 29 72 29 142 0 52 -5 87 -12 95 -19 18 -16 27 7 21 72 -19 132
185 96 325 -9 35 -28 83 -42 108 -31 52 -43 130 -31 204 2 13 -2 49 -8 80 -6
30 -11 70 -10 88 1 29 -1 31 -24 27 -14 -2 -47 6 -76 19 -27 13 -61 26 -75 28
-15 2 -30 14 -38 29 -18 36 -77 66 -142 75 -30 3 -65 12 -77 20 -12 8 -29 11
-37 8 -9 -3 -29 5 -46 19 -38 32 -137 79 -215 102 -53 16 -245 31 -256 21z"/>
</g>
</svg>
